<svg xmlns="http://www.w3.org/2000/svg" width="756" height="753" fill="none" viewBox="0 0 756 753"><path fill="#4B4B4B" d="M177.365 603.239a289.965 289.965 0 0 0 17.139 3.222c9.657 1.579 19.627 3.055 29.826 2.686 15.288-.541 30.859-2.236 46.272-3.71a1574.597 1574.597 0 0 0 47.872-5.339c59.028-7.485 120.107-16.601 178.006-42.594 28.087-12.629 55.171-29.509 78.782-50.797 23.611-21.288 43.921-46.68 54.907-74.582 10.381-26.401 4.092-51.384-7.361-71.901-12.753-22.826-31.042-41.735-52.319-56.579-43.117-30.051-97.894-42.478-154.605-43.566-28.207-.519-56.947 1.641-85.767 5.499-28.821 3.859-59.05 9.498-88.401 18.499-30.443 9.324-59.76 22.983-88.222 39.555-27.454 15.993-56.788 34.428-73.566 62.718-7 11.793-11.307 24.773-11.092 37.254.215 12.482 4.437 22.875 10.901 31.789 15.267 21.116 41.99 29.363 68.052 34.812 54.534 11.414 111.644 16.602 169.667 16.106 28.975-.263 58.263-1.946 87.657-5.217 27.465-3.041 55.175-7.741 82.707-15.338 53.096-14.623 108.201-41.569 146.434-87.119 17.884-21.302 31.7-46.431 35.603-72.045 2.193-14.426.641-28.236-1.437-41.735-2.077-13.498-4.707-27.944-9.451-40.866-8.9-24.223-26.706-41.916-49.873-52.587-23.167-10.67-49.931-14.59-77.112-14.694-55.136-.195-113.201 14.046-168.219 35.439-28.612 11.115-57.052 24.189-84.373 39.511-28.973 16.261-57.109 35.924-80.104 60.898-8.863 9.628-16.787 20.771-14.938 32.805 1.529 10.052 8.759 17.375 16.506 22.64 9.322 6.327 20.707 10.101 31.899 13.254 12.308 3.447 25.131 5.682 38.274 6.93 26.434 2.521 53.852 1.213 81.295-1.808 30.058-3.312 60.32-8.409 90.465-13.966 15.13-2.783 30.529-5.12 45.603-9.572 13.653-4.042 26.628-10.9 36.828-22.171 19.432-21.496 25.382-50.188 21.845-74.347-8.337-56.738-60.402-85.818-106.717-108.158-22.828-11.001-47.204-20.323-73.981-22.982-24.67-2.453-50.766 1.312-75.755 13.212-22.88 10.921-43.846 28.513-56.014 51.258-.864 1.619 1.303 2.778 2.192 1.101 12.577-23.515 34.643-41.337 58.528-51.822 25.414-11.167 51.55-13.789 76.09-10.366 25.992 3.594 49.58 13.212 71.837 24.265 24.952 12.372 49.968 25.828 69.614 45.067 16.912 16.607 29.525 38.185 32.051 63.769 2.407 24.654-5.692 54.667-28.197 73.863-12.067 10.292-26.841 14.754-40.986 17.825-15.478 3.36-30.963 6.118-46.443 8.839-28.617 5.044-57.283 9.697-85.766 12.416-26.824 2.553-53.593 3.295-79.247.047-12.427-1.576-24.577-4.097-36.165-7.74-10.912-3.459-21.86-7.592-30.283-14.865-7.052-6.079-12.886-14.899-10.597-25.876 1.454-6.953 6.056-13.268 10.974-18.878 5.266-6.017 10.967-11.715 16.844-17.148 24.52-22.648 52.926-40.211 81.802-55.128 52.826-27.287 108.676-48.21 164.286-58.603 55.609-10.393 112.224-12.586 155.351 12.088 10.49 5.997 19.783 13.737 27.088 23.215 7.944 10.304 13.096 22.625 16.563 35.68 3.466 13.055 5.816 27.301 7.283 41.362 1.368 13.111.891 26.538-2.941 40.303-14.594 52.588-63.414 94.968-111.706 119.35-51.495 26.022-106.914 36.228-160.008 41.264-57.136 5.436-113.651 5.27-168.492-.478-27.448-2.881-54.707-6.925-81.073-12.855-26.365-5.929-51.494-15.258-64.52-37.853-5.678-9.849-8.497-21.646-6.639-34.294 1.94-13.201 8.63-26.244 17.366-37.572 9.998-12.964 22.899-23.631 36.274-32.836 13.374-9.206 27.915-17.726 42.246-25.57 28.045-15.388 56.954-27.131 86.658-35.261 28.751-7.875 57.705-12.742 86.436-16.142 55.759-6.59 111.801-6.401 162.019 8.314 50.219 14.715 96.453 45.032 119.784 91.423 5.283 10.505 9.181 22.093 9.916 34.641.767 13.259-2.789 26.585-9.254 39.646-13.527 27.378-34.663 51.753-58.638 71.608-49.112 40.64-108.28 60.75-165.639 72.277-29.296 5.876-58.62 10.024-87.804 13.596a1581.956 1581.956 0 0 1-46.796 4.998c-7.616.682-15.227 1.326-22.834 1.932-6.503.507-13.124 1.231-19.55 1.224-15.058.013-29.829-2.818-43.927-5.936-1.598-.364-2.583 2.318-.981 2.644l.051.052Z"/><path fill="#4B4B4B" d="M345.082 103.426c-27.204-1.825-54.71.831-81.003 8.027-26.009 7.117-50.944 18.762-72.452 35.08a178.696 178.696 0 0 0-53.709 66.201c-13.748 29.137-20.135 61.433-20.808 93.535-.672 32.103 4.622 65.865 12.967 97.687 4.233 16.139 9.253 32.048 14.737 47.797 5.484 15.75 10.905 30.159 19.03 43.977 8.125 13.819 19.356 25.813 31.553 36.515 13.147 11.551 26.888 22.461 40.749 33.113 13.861 10.652 27.904 21.039 42.317 30.877 14.413 9.838 29.073 18.672 45.242 24.726 32.569 12.162 68.444 11.281 102.659 9.8 30.137-1.305 60.801-4.571 89.118-15.571 28.156-10.914 51.389-29.984 70.298-53.278 9.483-11.681 17.949-24.185 25.794-37.013 8.741-14.257 17.156-28.874 24.026-44.147 6.884-15.331 12.035-31.565 13.221-48.393 1.033-14.72-.747-28.662-4.977-43.707-8.252-29.353-24.305-56.15-41.304-81.203-17.797-26.213-38.317-50.943-63.173-70.76-26.777-21.333-58.055-35.772-89.403-49.003-31.347-13.231-64.602-25.609-98.769-31.625-29.934-5.259-60.825-5.574-90.272 2.579-25.355 7.021-49.568 19.89-67.973 38.892-18.404 19.002-30.228 45.412-31.873 72.806-1.644 27.394 6.196 57.306 20.258 81.999 14.951 26.261 37.211 47.815 61.822 65.026 24.611 17.211 53.371 31.691 82.276 42.022 27.923 9.985 58.837 15.956 88.052 8.016 26.806-7.303 49.868-26.697 61.599-51.885 12.734-27.367 11.376-59.869-2.913-86.347-7.54-13.972-17.718-27.012-28.582-38.554-11.043-11.747-24.046-20.695-39.726-24.945s-32.991-4.28-49.399-2.799c-13.851 1.265-27.751 3.825-40.681 9.032-12.658 5.086-24.292 12.852-32.662 23.766-9.238 12.043-14.188 26.854-15.989 41.808-3.444 28.311 3.305 57.731 17.09 82.565 14.434 26.022 37.033 46.796 64.063 59.19 14.078 6.457 29.217 10.666 44.631 12.224 14.553 1.486 29.666 1.221 42.754-6.032 23.772-13.173 35.695-41.459 39.078-67.255 3.684-28.114-2.204-56.829-14.007-82.396-12.219-26.438-31.101-51.551-55.353-68.007-12.535-8.495-27.169-14.568-42.467-15.018-12.966-.391-26.134 4.069-36.45 11.869-9.882 7.51-17.301 18.456-18.401 31.039-1.244 14.387 5.315 28.993 11.618 41.582 12.666 25.274 31.774 47.235 54.695 63.716 11.345 8.163 23.602 15.003 36.549 20.245 12.946 5.242 26.182 9.387 39.727 10.46 6.41.515 13.162-.116 18.782-3.493 5.244-3.156 8.687-8.353 10.633-14.052 4.239-12.484 2.119-26.878-1.261-39.315-6.828-25.112-22.942-47.414-44.761-61.646-1.068-.691-2.014 1.053-.947 1.744 22.622 14.74 38.922 38.472 44.884 64.795 2.846 12.54 4.577 28.112-2.482 39.629-8.033 13.112-24.372 11.14-37.29 8.291-53.641-11.799-100.561-51.065-121.579-101.838-5.629-13.579-9.777-28.474-3.212-42.491 5.602-11.929 16.8-20.651 28.993-25.128 29.365-10.762 59.336 5.931 79.986 26.222 39.208 38.557 62.909 99.527 45.907 153.713-4.005 12.802-10.478 25.064-19.82 34.778-10.116 10.518-22.92 16.427-37.526 17.154-30.2 1.494-61.239-8.872-85.614-26.498-23.183-16.765-40.56-40.782-49.737-67.855-9.141-26.964-11.207-58.953.956-85.328 6.108-13.263 16.037-23.945 28.661-31.221 12.624-7.277 25.689-10.74 39.324-12.85 30.871-4.81 65.589-4.28 90.51 16.959 11.881 10.121 21.967 22.936 30.646 35.84 8.679 12.904 15.089 27.272 17.24 42.878 3.983 28.751-5.482 57.982-25.862 78.678-20.559 20.859-48.853 29.865-77.782 28.18-28.928-1.686-58.164-12.805-84.716-25.418-52.719-25.035-103.394-63.397-122.362-120.866-8.755-26.509-10.394-55.79-1.351-82.444 8.424-24.815 26.047-45.321 47.803-59.584 21.994-14.413 47.815-22.858 73.903-25.469 32.122-3.221 64.637 2.257 95.434 11.262 32.288 9.445 63.82 22.493 94.181 36.928 14.673 6.98 29.043 14.667 42.57 23.733 13.527 9.067 25.238 18.945 36.389 30.125 21.67 21.726 39.758 46.924 55.643 73.111 15.054 24.816 28.253 51.966 31.527 81.148 1.762 15.701.204 31.383-4.256 46.55-4.852 16.445-12.616 31.882-20.972 46.778-14.366 25.569-30.289 50.805-50.995 71.774-10.306 10.454-21.834 19.733-34.603 27.018-12.769 7.284-26.681 12.595-40.922 16.301-28.728 7.5-58.706 9.004-88.27 9.582-17.413.335-34.951.049-52.185-2.656-16.818-2.652-32.839-7.917-47.914-15.825-14.836-7.792-28.597-17.442-42.188-27.217a1034.356 1034.356 0 0 1-41.019-31.113c-13.419-10.714-25.73-20.464-37.28-32.04-11.551-11.576-19.902-23.855-26.656-38.056-6.753-14.201-11.979-29.647-16.929-44.786-4.99-15.229-9.472-30.629-13.134-46.23-14.445-61.401-15.627-128.852 14.709-185.89 25.777-48.36 73.174-80.167 125.639-93.402 24.706-6.229 50.394-8.421 75.81-6.716 1.266.083 1.165-1.898-.102-1.981l.02.004Z"/></svg>